<svg xmlns="http://www.w3.org/2000/svg"
viewBox="0 0 6900 6150">
<path d="
M 1029 5521 
L 1171 5521 
L 1600 5549 
L 1421 5549 
L 1279 5540 
L 921 5540 
L 779 5549 
L 600 5549 
L 1029 5521 
M 1243 5536 
L 1100 5528 
L 993 5536 
L 1243 5536 
" fill="green" stroke="black" stroke-width="10"/>
<path d="
M 1600 5470 
L 1600 5481 
Q 1481 5476 , 1410 5475 
Q 1314 5472 , 1195 5472 
Q 1052 5472 , 933 5478 
Q 862 5481 , 838 5484 
Q 814 5488 , 814 5492 
Q 814 5501 , 933 5507 
Q 1052 5512 , 1195 5512 
Q 1267 5512 , 1350 5511 
Q 1433 5510 , 1600 5505 
L 1600 5515 
Q 1362 5521 , 1195 5521 
Q 957 5521 , 790 5513 
Q 600 5505 , 600 5493 
Q 600 5481 , 767 5472 
Q 957 5464 , 1195 5464 
Q 1314 5464 , 1397 5465 
Q 1481 5467 , 1600 5470 
" fill="royalblue" stroke="black" stroke-width="10"/>
<path d="
M 1556 5105 
L 1556 5185 
Q 1422 5146 , 1356 5136 
Q 1267 5123 , 1200 5123 
Q 1022 5123 , 911 5168 
Q 800 5209 , 800 5267 
Q 800 5325 , 911 5368 
Q 1022 5406 , 1156 5406 
Q 1267 5406 , 1333 5386 
Q 1400 5362 , 1400 5325 
L 1400 5308 
L 1022 5308 
L 1022 5253 
L 1600 5253 
L 1600 5458 
L 1422 5458 
L 1422 5429 
Q 1422 5431 , 1356 5443 
Q 1244 5464 , 1133 5464 
Q 911 5464 , 756 5407 
Q 600 5349 , 600 5268 
Q 600 5183 , 756 5125 
Q 933 5066 , 1178 5066 
Q 1289 5066 , 1400 5079 
Q 1467 5085 , 1556 5105 
" fill="gold" stroke="black" stroke-width="10"/>
<path d="
M 600 5066 
L 600 2424 
L 767 2424 
L 1100 4375 
L 1454 2424 
L 1600 2424 
L 1600 5066 
L 1475 5066 
L 1475 3181 
L 1142 5066 
L 1058 5066 
L 746 3187 
L 746 5066 
L 600 5066 
" fill="orangered" stroke="black" stroke-width="10"/>
<path d="
M 2079 5523 
L 2221 5523 
L 2650 5550 
L 2471 5550 
L 2329 5541 
L 1971 5541 
L 1829 5550 
L 1650 5550 
L 2079 5523 
M 2293 5537 
L 2150 5529 
L 2043 5537 
L 2293 5537 
" fill="green" stroke="black" stroke-width="10"/>
<path d="
M 1650 5442 
L 1835 5442 
L 1835 5493 
Q 1835 5502 , 1928 5506 
Q 2020 5511 , 2150 5511 
Q 2280 5511 , 2354 5506 
Q 2446 5501 , 2446 5493 
L 2446 5442 
L 2650 5442 
L 2650 5492 
Q 2650 5506 , 2483 5515 
Q 2354 5523 , 2150 5523 
Q 1928 5523 , 1798 5515 
Q 1650 5507 , 1650 5492 
L 1650 5442 
" fill="crimson" stroke="black" stroke-width="10"/>
<path d="
M 2650 4861 
L 2650 4990 
Q 2531 4935 , 2460 4916 
Q 2364 4889 , 2245 4889 
Q 2102 4889 , 1983 4956 
Q 1912 4990 , 1888 5030 
Q 1864 5071 , 1864 5118 
Q 1864 5212 , 1983 5280 
Q 2102 5346 , 2245 5346 
Q 2317 5346 , 2400 5330 
Q 2483 5315 , 2650 5257 
L 2650 5379 
Q 2412 5441 , 2245 5441 
Q 2007 5441 , 1840 5353 
Q 1650 5260 , 1650 5121 
Q 1650 4985 , 1817 4891 
Q 2007 4796 , 2245 4796 
Q 2364 4796 , 2447 4811 
Q 2531 4826 , 2650 4861 
" fill="royalblue" stroke="black" stroke-width="10"/>
<path d="
M 2150 4795 
Q 1944 4795 , 1797 4651 
Q 1650 4499 , 1650 4258 
Q 1650 4030 , 1797 3877 
Q 1944 3720 , 2150 3720 
Q 2356 3720 , 2503 3877 
Q 2650 4030 , 2650 4256 
Q 2650 4492 , 2503 4649 
Q 2356 4795 , 2150 4795 
M 2150 4590 
Q 2238 4590 , 2326 4499 
Q 2415 4406 , 2415 4256 
Q 2415 4103 , 2326 4007 
Q 2238 3922 , 2150 3922 
Q 2032 3922 , 1974 4009 
Q 1885 4110 , 1885 4258 
Q 1885 4407 , 1974 4505 
Q 2032 4590 , 2150 4590 
" fill="orangered" stroke="black" stroke-width="10"/>
<path d="
M 3700 5530 
L 3700 5535 
Q 3581 5533 , 3510 5532 
Q 3414 5531 , 3295 5531 
Q 3152 5531 , 3033 5533 
Q 2962 5535 , 2938 5536 
Q 2914 5537 , 2914 5539 
Q 2914 5542 , 3033 5544 
Q 3152 5547 , 3295 5547 
Q 3367 5547 , 3450 5546 
Q 3533 5546 , 3700 5544 
L 3700 5548 
Q 3462 5550 , 3295 5550 
Q 3057 5550 , 2890 5547 
Q 2700 5544 , 2700 5539 
Q 2700 5534 , 2867 5531 
Q 3057 5528 , 3295 5528 
Q 3414 5528 , 3497 5528 
Q 3581 5529 , 3700 5530 
" fill="royalblue" stroke="black" stroke-width="10"/>
<path d="
M 3129 5266 
L 3271 5266 
L 3700 5528 
L 3521 5528 
L 3379 5444 
L 3021 5444 
L 2879 5528 
L 2700 5528 
L 3129 5266 
M 3343 5406 
L 3200 5327 
L 3093 5406 
L 3343 5406 
" fill="green" stroke="black" stroke-width="10"/>
<path d="
M 3656 5009 
L 3656 5067 
Q 3522 5039 , 3456 5032 
Q 3367 5023 , 3300 5023 
Q 3122 5023 , 3011 5054 
Q 2900 5084 , 2900 5125 
Q 2900 5167 , 3011 5198 
Q 3122 5225 , 3256 5225 
Q 3367 5225 , 3433 5210 
Q 3500 5193 , 3500 5166 
L 3500 5155 
L 3122 5155 
L 3122 5115 
L 3700 5115 
L 3700 5261 
L 3522 5261 
L 3522 5241 
Q 3522 5242 , 3456 5251 
Q 3344 5266 , 3233 5266 
Q 3011 5266 , 2856 5225 
Q 2700 5184 , 2700 5126 
Q 2700 5065 , 2856 5024 
Q 3033 4982 , 3278 4982 
Q 3389 4982 , 3500 4991 
Q 3567 4995 , 3656 5009 
" fill="gold" stroke="black" stroke-width="10"/>
<path d="
M 3655 4825 
Q 3605 4903 , 3481 4947 
Q 3378 4982 , 3266 4982 
Q 3105 4982 , 2998 4928 
Q 2861 4859 , 2861 4721 
Q 2861 4682 , 2873 4634 
Q 2886 4587 , 2919 4565 
Q 2911 4584 , 2886 4579 
Q 2861 4574 , 2828 4565 
Q 2795 4559 , 2770 4552 
Q 2745 4545 , 2700 4528 
L 2737 4367 
Q 2807 4392 , 2823 4398 
Q 2840 4404 , 2853 4408 
Q 2927 4430 , 2940 4430 
Q 2948 4395 , 2964 4350 
Q 2981 4306 , 2989 4294 
Q 2989 4296 , 2948 4287 
Q 2907 4279 , 2869 4270 
Q 2853 4267 , 2834 4260 
Q 2816 4253 , 2762 4237 
L 2799 4085 
Q 2890 4112 , 2919 4118 
Q 3018 4142 , 3051 4145 
Q 3051 4142 , 3065 4113 
Q 3080 4084 , 3093 4050 
Q 3121 3985 , 3146 3913 
Q 3204 3927 , 3222 3933 
Q 3241 3940 , 3258 3946 
Q 3336 3975 , 3336 4012 
Q 3336 4031 , 3321 4046 
Q 3307 4061 , 3303 4066 
Q 3295 4084 , 3287 4100 
Q 3279 4116 , 3270 4131 
Q 3258 4152 , 3249 4171 
Q 3241 4191 , 3212 4186 
Q 3217 4163 , 3241 4164 
Q 3266 4165 , 3303 4165 
L 3464 4159 
L 3419 4319 
Q 3349 4325 , 3270 4325 
L 3183 4323 
Q 3175 4338 , 3156 4390 
Q 3138 4442 , 3134 4447 
L 3221 4450 
L 3419 4445 
L 3382 4605 
L 3212 4610 
Q 3159 4610 , 3121 4609 
Q 3084 4608 , 3080 4608 
Q 3080 4617 , 3070 4651 
Q 3060 4685 , 3060 4712 
Q 3060 4765 , 3117 4793 
Q 3175 4821 , 3258 4821 
Q 3365 4821 , 3436 4784 
Q 3502 4740 , 3502 4666 
Q 3502 4622 , 3485 4577 
Q 3469 4532 , 3419 4443 
Q 3469 4430 , 3477 4427 
Q 3485 4424 , 3489 4422 
Q 3514 4414 , 3530 4408 
Q 3547 4403 , 3593 4380 
Q 3655 4483 , 3677 4549 
Q 3700 4616 , 3700 4669 
Q 3700 4717 , 3685 4755 
Q 3671 4793 , 3655 4825 
" fill="" stroke="black" stroke-width="10"/>
<path d="
M 4179 5437 
L 4321 5437 
L 4750 5550 
L 4571 5550 
L 4429 5513 
L 4071 5513 
L 3929 5550 
L 3750 5550 
L 4179 5437 
M 4393 5497 
L 4250 5463 
L 4143 5497 
L 4393 5497 
" fill="green" stroke="black" stroke-width="10"/>
<path d="
M 4750 5335 
L 4750 5358 
Q 4631 5348 , 4560 5345 
Q 4464 5340 , 4345 5340 
Q 4202 5340 , 4083 5352 
Q 4012 5358 , 3988 5365 
Q 3964 5372 , 3964 5380 
Q 3964 5397 , 4083 5408 
Q 4202 5420 , 4345 5420 
Q 4417 5420 , 4500 5417 
Q 4583 5414 , 4750 5404 
L 4750 5426 
Q 4512 5437 , 4345 5437 
Q 4107 5437 , 3940 5421 
Q 3750 5405 , 3750 5381 
Q 3750 5357 , 3917 5341 
Q 4107 5324 , 4345 5324 
Q 4464 5324 , 4547 5326 
Q 4631 5329 , 4750 5335 
" fill="royalblue" stroke="black" stroke-width="10"/>
<path d="
M 3750 5098 
L 3935 5098 
L 3935 5240 
Q 3935 5264 , 4028 5278 
Q 4120 5290 , 4250 5290 
Q 4380 5290 , 4454 5278 
Q 4546 5264 , 4546 5240 
L 4546 5098 
L 4750 5098 
L 4750 5237 
Q 4750 5277 , 4583 5301 
Q 4454 5323 , 4250 5323 
Q 4028 5323 , 3898 5301 
Q 3750 5279 , 3750 5238 
L 3750 5098 
" fill="crimson" stroke="black" stroke-width="10"/>
<path d="
M 4058 2734 
L 4365 2734 
L 4365 3230 
L 4750 3230 
L 4750 3590 
L 4365 3590 
L 4365 4583 
Q 4365 4684 , 4403 4716 
Q 4442 4748 , 4519 4748 
Q 4519 4748 , 4557 4735 
Q 4596 4723 , 4750 4653 
L 4750 5031 
Q 4673 5066 , 4596 5082 
Q 4519 5098 , 4442 5098 
Q 4288 5098 , 4135 4996 
Q 4058 4885 , 4058 4653 
L 4058 3590 
L 3750 3590 
L 3750 3230 
L 4058 3230 
L 4058 2734 
" fill="orangered" stroke="black" stroke-width="10"/>
<path d="
M 5800 5437 
L 5800 5462 
Q 5681 5452 , 5610 5448 
Q 5514 5443 , 5395 5443 
Q 5252 5443 , 5133 5456 
Q 5062 5462 , 5038 5470 
Q 5014 5478 , 5014 5487 
Q 5014 5505 , 5133 5518 
Q 5252 5531 , 5395 5531 
Q 5467 5531 , 5550 5528 
Q 5633 5525 , 5800 5514 
L 5800 5537 
Q 5562 5549 , 5395 5549 
Q 5157 5549 , 4990 5532 
Q 4800 5515 , 4800 5488 
Q 4800 5461 , 4967 5443 
Q 5157 5425 , 5395 5425 
Q 5514 5425 , 5597 5428 
Q 5681 5431 , 5800 5437 
" fill="royalblue" stroke="black" stroke-width="10"/>
<path d="
M 5229 5263 
L 5371 5263 
L 5800 5425 
L 5621 5425 
L 5479 5373 
L 5121 5373 
L 4979 5425 
L 4800 5425 
L 5229 5263 
M 5443 5350 
L 5300 5300 
L 5193 5350 
L 5443 5350 
" fill="green" stroke="black" stroke-width="10"/>
<path d="
M 4800 5101 
L 4985 5101 
L 4985 5203 
Q 4985 5220 , 5078 5230 
Q 5170 5239 , 5300 5239 
Q 5430 5239 , 5504 5230 
Q 5596 5220 , 5596 5203 
L 5596 5101 
L 5800 5101 
L 5800 5201 
Q 5800 5229 , 5633 5247 
Q 5504 5263 , 5300 5263 
Q 5078 5263 , 4948 5247 
Q 4800 5231 , 4800 5201 
L 4800 5101 
" fill="crimson" stroke="black" stroke-width="10"/>
<path d="
" fill="" stroke="black" stroke-width="10"/>
<path d="
M 4875 4508 
L 5725 4508 
L 5725 5100 
L 4875 5100 
L 4875 4508 
M 5300 4279 
Q 5500 4279 , 5650 4301 
Q 5800 4323 , 5800 4359 
Q 5800 4395 , 5662 4417 
Q 5525 4439 , 5300 4439 
Q 5050 4439 , 4925 4414 
Q 4800 4390 , 4800 4360 
Q 4800 4313 , 4962 4296 
Q 5125 4279 , 5300 4279 
" fill="orangered" stroke="black" stroke-width="10"/>
<path d="
" fill="" stroke="black" stroke-width="10"/>
<path d="
M 6806 5465 
L 6806 5484 
Q 6672 5475 , 6606 5472 
Q 6517 5470 , 6450 5470 
Q 6272 5470 , 6161 5480 
Q 6050 5490 , 6050 5503 
Q 6050 5517 , 6161 5527 
Q 6272 5536 , 6406 5536 
Q 6517 5536 , 6583 5531 
Q 6650 5526 , 6650 5517 
L 6650 5513 
L 6272 5513 
L 6272 5500 
L 6850 5500 
L 6850 5548 
L 6672 5548 
L 6672 5542 
Q 6672 5542 , 6606 5545 
Q 6494 5550 , 6383 5550 
Q 6161 5550 , 6006 5536 
Q 5850 5523 , 5850 5504 
Q 5850 5484 , 6006 5470 
Q 6183 5456 , 6428 5456 
Q 6539 5456 , 6650 5459 
Q 6717 5460 , 6806 5465 
" fill="gold" stroke="black" stroke-width="10"/>
<path d="
M 5850 5315 
L 6035 5315 
L 6035 5403 
Q 6035 5419 , 6128 5427 
Q 6220 5435 , 6350 5435 
Q 6480 5435 , 6554 5427 
Q 6646 5419 , 6646 5403 
L 6646 5315 
L 6850 5315 
L 6850 5402 
Q 6850 5427 , 6683 5442 
Q 6554 5456 , 6350 5456 
Q 6128 5456 , 5998 5442 
Q 5850 5428 , 5850 5402 
L 5850 5315 
" fill="crimson" stroke="black" stroke-width="10"/>
<path d="
M 6850 5061 
L 6850 5118 
Q 6731 5094 , 6660 5086 
Q 6564 5074 , 6445 5074 
Q 6302 5074 , 6183 5103 
Q 6112 5118 , 6088 5135 
Q 6064 5153 , 6064 5173 
Q 6064 5215 , 6183 5244 
Q 6302 5273 , 6445 5273 
Q 6517 5273 , 6600 5266 
Q 6683 5259 , 6850 5234 
L 6850 5287 
Q 6612 5314 , 6445 5314 
Q 6207 5314 , 6040 5276 
Q 5850 5235 , 5850 5175 
Q 5850 5115 , 6017 5075 
Q 6207 5033 , 6445 5033 
Q 6564 5033 , 6647 5039 
Q 6731 5046 , 6850 5061 
" fill="royalblue" stroke="black" stroke-width="10"/>
<path d="
M 5850 3837 
L 6850 3837 
L 6850 4008 
L 6091 4008 
L 6091 4353 
L 6816 4353 
L 6816 4516 
L 6091 4516 
L 6091 5032 
L 5850 5032 
L 5850 3837 
" fill="orangered" stroke="black" stroke-width="10"/>
<path d="M 550 550 L 550 5550 " stroke="black" stroke-width="15"/>
<path d="M 450 5550 L 550 5550 " stroke="black" stroke-width="40"/>
<text text-anchor="end" x="350" y="5550" font-size="500">0</text>
<path d="M 450 3050 L 550 3050 " stroke="black" stroke-width="40"/>
<text text-anchor="end" x="350" y="3050" font-size="500">1</text>
<path d="M 450 550 L 550 550 " stroke="black" stroke-width="40"/>
<text text-anchor="end" x="350" y="550" font-size="500">2</text>
<text text-anchor="middle" x="3675" y="500" font-size="500">sample2</text>
<text text-anchor="middle" x="1100" y="6100" font-size="500"></text>
<text text-anchor="middle" x="2150" y="6100" font-size="500"></text>
<text text-anchor="middle" x="3200" y="6100" font-size="500">↑</text>
<text text-anchor="middle" x="4250" y="6100" font-size="500"></text>
<text text-anchor="middle" x="5300" y="6100" font-size="500">＊</text>
<text text-anchor="middle" x="6350" y="6100" font-size="500"></text>
</svg> 
