<svg xmlns="http://www.w3.org/2000/svg"
viewBox="0 0 7000 6100">
<path d="
M 1129 5528 
L 1271 5528 
L 1700 5550 
L 1521 5550 
L 1379 5543 
L 1021 5543 
L 879 5550 
L 700 5550 
L 1129 5528 
M 1343 5540 
L 1200 5533 
L 1093 5540 
L 1343 5540 
" fill="#339541" stroke="black" stroke-width="10"/>
<path d="
M 1656 5448 
L 1656 5466 
Q 1522 5458 , 1456 5455 
Q 1367 5453 , 1300 5453 
Q 1122 5453 , 1011 5462 
Q 900 5471 , 900 5484 
Q 900 5497 , 1011 5506 
Q 1122 5515 , 1256 5515 
Q 1367 5515 , 1433 5510 
Q 1500 5505 , 1500 5497 
L 1500 5493 
L 1122 5493 
L 1122 5481 
L 1700 5481 
L 1700 5526 
L 1522 5526 
L 1522 5519 
Q 1522 5520 , 1456 5523 
Q 1344 5527 , 1233 5527 
Q 1011 5527 , 856 5515 
Q 700 5502 , 700 5484 
Q 700 5466 , 856 5453 
Q 1033 5440 , 1278 5440 
Q 1389 5440 , 1500 5443 
Q 1567 5444 , 1656 5448 
" fill="#F5C000" stroke="black" stroke-width="10"/>
<path d="
M 1700 5008 
L 1700 5104 
Q 1581 5063 , 1510 5049 
Q 1414 5029 , 1295 5029 
Q 1152 5029 , 1033 5079 
Q 962 5104 , 938 5134 
Q 914 5164 , 914 5199 
Q 914 5269 , 1033 5319 
Q 1152 5368 , 1295 5368 
Q 1367 5368 , 1450 5356 
Q 1533 5345 , 1700 5303 
L 1700 5393 
Q 1462 5439 , 1295 5439 
Q 1057 5439 , 890 5374 
Q 700 5305 , 700 5201 
Q 700 5100 , 867 5031 
Q 1057 4960 , 1295 4960 
Q 1414 4960 , 1497 4971 
Q 1581 4982 , 1700 5008 
" fill="#545FFF" stroke="black" stroke-width="10"/>
<path d="
M 1700 2934 
L 1585 3913 
Q 1557 4155 , 1460 4310 
Q 1338 4496 , 1159 4496 
L 1105 4959 
L 922 4959 
L 980 4488 
Q 868 4468 , 784 4329 
Q 700 4191 , 700 3959 
L 707 3852 
L 815 2934 
L 997 2934 
L 890 3855 
Q 886 3893 , 884 3917 
Q 883 3941 , 883 3959 
Q 883 4066 , 922 4120 
Q 962 4175 , 1015 4183 
L 1159 2934 
L 1342 2934 
L 1195 4186 
Q 1241 4186 , 1309 4117 
Q 1388 4033 , 1406 3878 
L 1517 2934 
L 1700 2934 
" fill="#9370DB" stroke="black" stroke-width="10"/>
<path d="
M 2179 5521 
L 2321 5521 
L 2750 5550 
L 2571 5550 
L 2429 5540 
L 2071 5540 
L 1929 5550 
L 1750 5550 
L 2179 5521 
M 2393 5536 
L 2250 5528 
L 2143 5536 
L 2393 5536 
" fill="#339541" stroke="black" stroke-width="10"/>
<path d="
M 1750 5435 
L 1935 5435 
L 1935 5489 
Q 1935 5498 , 2028 5504 
Q 2120 5508 , 2250 5508 
Q 2380 5508 , 2454 5504 
Q 2546 5498 , 2546 5489 
L 2546 5435 
L 2750 5435 
L 2750 5488 
Q 2750 5503 , 2583 5512 
Q 2454 5521 , 2250 5521 
Q 2028 5521 , 1898 5513 
Q 1750 5504 , 1750 5488 
L 1750 5435 
" fill="#D21010" stroke="black" stroke-width="10"/>
<path d="
M 2750 4817 
L 2750 4955 
Q 2631 4896 , 2560 4876 
Q 2464 4847 , 2345 4847 
Q 2202 4847 , 2083 4919 
Q 2012 4955 , 1988 4998 
Q 1964 5041 , 1964 5091 
Q 1964 5191 , 2083 5263 
Q 2202 5333 , 2345 5333 
Q 2417 5333 , 2500 5316 
Q 2583 5300 , 2750 5239 
L 2750 5369 
Q 2512 5435 , 2345 5435 
Q 2107 5435 , 1940 5342 
Q 1750 5243 , 1750 5094 
Q 1750 4949 , 1917 4850 
Q 2107 4748 , 2345 4748 
Q 2464 4748 , 2547 4764 
Q 2631 4780 , 2750 4817 
" fill="#545FFF" stroke="black" stroke-width="10"/>
<path d="
M 2706 3997 
L 2706 4165 
Q 2572 4085 , 2506 4062 
Q 2417 4037 , 2350 4037 
Q 2172 4037 , 2061 4129 
Q 1950 4215 , 1950 4336 
Q 1950 4459 , 2061 4548 
Q 2172 4627 , 2306 4627 
Q 2417 4627 , 2483 4584 
Q 2550 4535 , 2550 4457 
L 2550 4422 
L 2172 4422 
L 2172 4308 
L 2750 4308 
L 2750 4734 
L 2572 4734 
L 2572 4675 
Q 2572 4679 , 2506 4705 
Q 2394 4747 , 2283 4747 
Q 2061 4747 , 1906 4628 
Q 1750 4509 , 1750 4338 
Q 1750 4161 , 1906 4040 
Q 2083 3917 , 2328 3917 
Q 2439 3917 , 2550 3943 
Q 2617 3956 , 2706 3997 
" fill="#F5C000" stroke="black" stroke-width="10"/>
<path d="
M 3800 5534 
L 3800 5537 
Q 3681 5536 , 3610 5535 
Q 3514 5535 , 3395 5535 
Q 3252 5535 , 3133 5536 
Q 3062 5537 , 3038 5538 
Q 3014 5539 , 3014 5541 
Q 3014 5543 , 3133 5545 
Q 3252 5547 , 3395 5547 
Q 3467 5547 , 3550 5546 
Q 3633 5546 , 3800 5544 
L 3800 5548 
Q 3562 5549 , 3395 5549 
Q 3157 5549 , 2990 5547 
Q 2800 5545 , 2800 5541 
Q 2800 5537 , 2967 5535 
Q 3157 5532 , 3395 5532 
Q 3514 5532 , 3597 5532 
Q 3681 5533 , 3800 5534 
" fill="#545FFF" stroke="black" stroke-width="10"/>
<path d="
M 3229 5322 
L 3371 5322 
L 3800 5532 
L 3621 5532 
L 3479 5464 
L 3121 5464 
L 2979 5532 
L 2800 5532 
L 3229 5322 
M 3443 5434 
L 3300 5371 
L 3193 5434 
L 3443 5434 
" fill="#339541" stroke="black" stroke-width="10"/>
<path d="
M 3756 5022 
L 3756 5089 
Q 3622 5057 , 3556 5048 
Q 3467 5038 , 3400 5038 
Q 3222 5038 , 3111 5075 
Q 3000 5109 , 3000 5158 
Q 3000 5207 , 3111 5242 
Q 3222 5274 , 3356 5274 
Q 3467 5274 , 3533 5257 
Q 3600 5237 , 3600 5206 
L 3600 5192 
L 3222 5192 
L 3222 5146 
L 3800 5146 
L 3800 5317 
L 3622 5317 
L 3622 5293 
Q 3622 5295 , 3556 5305 
Q 3444 5322 , 3333 5322 
Q 3111 5322 , 2956 5274 
Q 2800 5227 , 2800 5158 
Q 2800 5088 , 2956 5039 
Q 3133 4990 , 3378 4990 
Q 3489 4990 , 3600 5001 
Q 3667 5006 , 3756 5022 
" fill="#F5C000" stroke="black" stroke-width="10"/>
<path d="
M 3691 4308 
L 3589 4638 
Q 3564 4719 , 3477 4771 
Q 3369 4834 , 3209 4834 
L 3161 4989 
L 2998 4989 
L 3049 4831 
Q 2950 4824 , 2875 4777 
Q 2800 4731 , 2800 4653 
L 2806 4617 
L 2902 4308 
L 3065 4308 
L 2969 4618 
Q 2966 4631 , 2964 4639 
Q 2963 4647 , 2963 4653 
Q 2963 4689 , 2998 4707 
Q 3033 4726 , 3081 4728 
L 3209 4308 
L 3372 4308 
L 3241 4729 
Q 3282 4729 , 3343 4706 
Q 3413 4678 , 3429 4626 
L 3528 4308 
L 3691 4308 
" fill="#9370DB" stroke="black" stroke-width="10"/>
<path d="
M 3746 4989 
Q 3723 4989 , 3707 4921 
Q 3691 4849 , 3691 4734 
Q 3691 4626 , 3707 4554 
Q 3723 4479 , 3746 4479 
Q 3768 4479 , 3784 4554 
Q 3800 4626 , 3800 4733 
Q 3800 4846 , 3784 4920 
Q 3768 4989 , 3746 4989 
M 3746 4892 
Q 3755 4892 , 3765 4849 
Q 3774 4804 , 3774 4733 
Q 3774 4661 , 3765 4615 
Q 3755 4575 , 3746 4575 
Q 3733 4575 , 3727 4616 
Q 3717 4664 , 3717 4734 
Q 3717 4805 , 3727 4852 
Q 3733 4892 , 3746 4892 
" fill="#9370DB" stroke="black" stroke-width="10"/>
<path d="
M 4850 5501 
L 4850 5512 
Q 4731 5507 , 4660 5506 
Q 4564 5504 , 4445 5504 
Q 4302 5504 , 4183 5509 
Q 4112 5512 , 4088 5515 
Q 4064 5519 , 4064 5522 
Q 4064 5530 , 4183 5536 
Q 4302 5541 , 4445 5541 
Q 4517 5541 , 4600 5540 
Q 4683 5539 , 4850 5534 
L 4850 5544 
Q 4612 5549 , 4445 5549 
Q 4207 5549 , 4040 5542 
Q 3850 5534 , 3850 5523 
Q 3850 5512 , 4017 5504 
Q 4207 5496 , 4445 5496 
Q 4564 5496 , 4647 5497 
Q 4731 5498 , 4850 5501 
" fill="#545FFF" stroke="black" stroke-width="10"/>
<path d="
M 3850 5389 
L 4035 5389 
L 4035 5456 
Q 4035 5467 , 4128 5474 
Q 4220 5480 , 4350 5480 
Q 4480 5480 , 4554 5474 
Q 4646 5467 , 4646 5456 
L 4646 5389 
L 4850 5389 
L 4850 5454 
Q 4850 5473 , 4683 5485 
Q 4554 5495 , 4350 5495 
Q 4128 5495 , 3998 5485 
Q 3850 5474 , 3850 5455 
L 3850 5389 
" fill="#D21010" stroke="black" stroke-width="10"/>
<path d="
M 4279 5123 
L 4421 5123 
L 4850 5388 
L 4671 5388 
L 4529 5303 
L 4171 5303 
L 4029 5388 
L 3850 5388 
L 4279 5123 
M 4493 5265 
L 4350 5184 
L 4243 5265 
L 4493 5265 
" fill="#339541" stroke="black" stroke-width="10"/>
<path d="
M 4806 2680 
L 4806 3227 
Q 4672 2965 , 4606 2891 
Q 4517 2808 , 4450 2808 
Q 4272 2808 , 4161 3108 
Q 4050 3390 , 4050 3783 
Q 4050 4182 , 4161 4473 
Q 4272 4732 , 4406 4732 
Q 4517 4732 , 4583 4592 
Q 4650 4432 , 4650 4176 
L 4650 4064 
L 4272 4064 
L 4272 3690 
L 4850 3690 
L 4850 5081 
L 4672 5081 
L 4672 4886 
Q 4672 4902 , 4606 4985 
Q 4494 5122 , 4383 5122 
Q 4161 5122 , 4006 4735 
Q 3850 4345 , 3850 3789 
Q 3850 3214 , 4006 2818 
Q 4183 2418 , 4428 2418 
Q 4539 2418 , 4650 2504 
Q 4717 2546 , 4806 2680 
" fill="#F5C000" stroke="black" stroke-width="10"/>
<path d="
M 5900 5527 
L 5900 5532 
Q 5781 5530 , 5710 5530 
Q 5614 5529 , 5495 5529 
Q 5352 5529 , 5233 5531 
Q 5162 5532 , 5138 5534 
Q 5114 5536 , 5114 5537 
Q 5114 5541 , 5233 5544 
Q 5352 5546 , 5495 5546 
Q 5567 5546 , 5650 5545 
Q 5733 5545 , 5900 5543 
L 5900 5547 
Q 5662 5550 , 5495 5550 
Q 5257 5550 , 5090 5546 
Q 4900 5543 , 4900 5537 
Q 4900 5532 , 5067 5529 
Q 5257 5525 , 5495 5525 
Q 5614 5525 , 5697 5525 
Q 5781 5526 , 5900 5527 
" fill="#545FFF" stroke="black" stroke-width="10"/>
<path d="
M 4900 5450 
L 5085 5450 
L 5085 5497 
Q 5085 5505 , 5178 5509 
Q 5270 5513 , 5400 5513 
Q 5530 5513 , 5604 5509 
Q 5696 5505 , 5696 5497 
L 5696 5450 
L 5900 5450 
L 5900 5496 
Q 5900 5509 , 5733 5517 
Q 5604 5524 , 5400 5524 
Q 5178 5524 , 5048 5517 
Q 4900 5510 , 4900 5496 
L 4900 5450 
" fill="#D21010" stroke="black" stroke-width="10"/>
<path d="
M 5329 4881 
L 5471 4881 
L 5900 5450 
L 5721 5450 
L 5579 5267 
L 5221 5267 
L 5079 5450 
L 4900 5450 
L 5329 4881 
M 5543 5186 
L 5400 5013 
L 5293 5186 
L 5543 5186 
" fill="#339541" stroke="black" stroke-width="10"/>
<path d="
M 5856 3406 
L 5856 3736 
Q 5722 3578 , 5656 3534 
Q 5567 3483 , 5500 3483 
Q 5322 3483 , 5211 3665 
Q 5100 3835 , 5100 4072 
Q 5100 4313 , 5211 4489 
Q 5322 4645 , 5456 4645 
Q 5567 4645 , 5633 4560 
Q 5700 4464 , 5700 4309 
L 5700 4242 
L 5322 4242 
L 5322 4016 
L 5900 4016 
L 5900 4856 
L 5722 4856 
L 5722 4738 
Q 5722 4748 , 5656 4798 
Q 5544 4881 , 5433 4881 
Q 5211 4881 , 5056 4647 
Q 4900 4412 , 4900 4076 
Q 4900 3729 , 5056 3489 
Q 5233 3248 , 5478 3248 
Q 5589 3248 , 5700 3300 
Q 5767 3325 , 5856 3406 
" fill="#F5C000" stroke="black" stroke-width="10"/>
<path d="
M 6950 5479 
L 6950 5495 
Q 6831 5488 , 6760 5486 
Q 6664 5482 , 6545 5482 
Q 6402 5482 , 6283 5491 
Q 6212 5495 , 6188 5500 
Q 6164 5505 , 6164 5510 
Q 6164 5522 , 6283 5530 
Q 6402 5538 , 6545 5538 
Q 6617 5538 , 6700 5536 
Q 6783 5534 , 6950 5527 
L 6950 5542 
Q 6712 5550 , 6545 5550 
Q 6307 5550 , 6140 5539 
Q 5950 5528 , 5950 5511 
Q 5950 5494 , 6117 5483 
Q 6307 5471 , 6545 5471 
Q 6664 5471 , 6747 5473 
Q 6831 5475 , 6950 5479 
" fill="#545FFF" stroke="black" stroke-width="10"/>
<path d="
M 6906 5328 
L 6906 5360 
Q 6772 5345 , 6706 5341 
Q 6617 5336 , 6550 5336 
Q 6372 5336 , 6261 5353 
Q 6150 5370 , 6150 5392 
Q 6150 5416 , 6261 5433 
Q 6372 5448 , 6506 5448 
Q 6617 5448 , 6683 5440 
Q 6750 5430 , 6750 5415 
L 6750 5409 
L 6372 5409 
L 6372 5387 
L 6950 5387 
L 6950 5468 
L 6772 5468 
L 6772 5457 
Q 6772 5458 , 6706 5462 
Q 6594 5470 , 6483 5470 
Q 6261 5470 , 6106 5448 
Q 5950 5425 , 5950 5393 
Q 5950 5359 , 6106 5336 
Q 6283 5313 , 6528 5313 
Q 6639 5313 , 6750 5318 
Q 6817 5320 , 6906 5328 
" fill="#F5C000" stroke="black" stroke-width="10"/>
<path d="
M 5950 5076 
L 6135 5076 
L 6135 5225 
Q 6135 5250 , 6228 5264 
Q 6320 5277 , 6450 5277 
Q 6580 5277 , 6654 5265 
Q 6746 5250 , 6746 5225 
L 6746 5076 
L 6950 5076 
L 6950 5222 
Q 6950 5263 , 6783 5289 
Q 6654 5312 , 6450 5312 
Q 6228 5312 , 6098 5289 
Q 5950 5265 , 5950 5223 
L 5950 5076 
" fill="#D21010" stroke="black" stroke-width="10"/>
<path d="
M 6379 2872 
L 6521 2872 
L 6950 5075 
L 6771 5075 
L 6629 4367 
L 6271 4367 
L 6129 5075 
L 5950 5075 
L 6379 2872 
M 6593 4053 
L 6450 3382 
L 6343 4053 
L 6593 4053 
" fill="#339541" stroke="black" stroke-width="10"/>
<path d="M 650 550 L 650 5550 " stroke="black" stroke-width="15"/>
<path d="M 550 5550 L 650 5550 " stroke="black" stroke-width="40"/>
<text text-anchor="end" x="500" y="5550" font-size="500" alignment-baseline="middle">0</text>
<path d="M 550 3050 L 650 3050 " stroke="black" stroke-width="40"/>
<text text-anchor="end" x="500" y="3050" font-size="500" alignment-baseline="middle">1</text>
<path d="M 550 550 L 650 550 " stroke="black" stroke-width="40"/>
<text text-anchor="end" x="500" y="550" font-size="500" alignment-baseline="middle">2</text>
<text text-anchor="middle" x="1200" y="6100" font-size="500" alignment-baseline="baseline">1</text>
<text text-anchor="middle" x="2250" y="6100" font-size="500" alignment-baseline="baseline">2</text>
<text text-anchor="middle" x="3300" y="6100" font-size="500" alignment-baseline="baseline">3</text>
<text text-anchor="middle" x="4350" y="6100" font-size="500" alignment-baseline="baseline">4</text>
<text text-anchor="middle" x="5400" y="6100" font-size="500" alignment-baseline="baseline">5</text>
<text text-anchor="middle" x="6450" y="6100" font-size="500" alignment-baseline="baseline">6</text>
<text text-anchor="middle" x="3825" y="500" font-size="500" alignment-baseline="baseline">sample1</text>
</svg>