<svg xmlns="http://www.w3.org/2000/svg"
viewBox="0 0 6900 6150">
<path d="
M 1029 5528 
L 1171 5528 
L 1600 5550 
L 1421 5550 
L 1279 5543 
L 921 5543 
L 779 5550 
L 600 5550 
L 1029 5528 
M 1243 5540 
L 1100 5533 
L 993 5540 
L 1243 5540 
" fill="#339541" stroke="black" stroke-width="10"/>
<path d="
M 1556 5448 
L 1556 5466 
Q 1422 5458 , 1356 5455 
Q 1267 5453 , 1200 5453 
Q 1022 5453 , 911 5462 
Q 800 5471 , 800 5484 
Q 800 5497 , 911 5506 
Q 1022 5515 , 1156 5515 
Q 1267 5515 , 1333 5510 
Q 1400 5505 , 1400 5497 
L 1400 5493 
L 1022 5493 
L 1022 5481 
L 1600 5481 
L 1600 5526 
L 1422 5526 
L 1422 5519 
Q 1422 5520 , 1356 5523 
Q 1244 5527 , 1133 5527 
Q 911 5527 , 756 5515 
Q 600 5502 , 600 5484 
Q 600 5466 , 756 5453 
Q 933 5440 , 1178 5440 
Q 1289 5440 , 1400 5443 
Q 1467 5444 , 1556 5448 
" fill="#F5C000" stroke="black" stroke-width="10"/>
<path d="
M 1600 5008 
L 1600 5104 
Q 1481 5063 , 1410 5049 
Q 1314 5029 , 1195 5029 
Q 1052 5029 , 933 5079 
Q 862 5104 , 838 5134 
Q 814 5164 , 814 5199 
Q 814 5269 , 933 5319 
Q 1052 5368 , 1195 5368 
Q 1267 5368 , 1350 5356 
Q 1433 5345 , 1600 5303 
L 1600 5393 
Q 1362 5439 , 1195 5439 
Q 957 5439 , 790 5374 
Q 600 5305 , 600 5201 
Q 600 5100 , 767 5031 
Q 957 4960 , 1195 4960 
Q 1314 4960 , 1397 4971 
Q 1481 4982 , 1600 5008 
" fill="#545FFF" stroke="black" stroke-width="10"/>
<path d="
M 1600 2934 
L 1485 3913 
Q 1457 4155 , 1360 4310 
Q 1238 4496 , 1059 4496 
L 1005 4959 
L 822 4959 
L 880 4488 
Q 768 4468 , 684 4329 
Q 600 4191 , 600 3959 
L 607 3852 
L 715 2934 
L 897 2934 
L 790 3855 
Q 786 3893 , 784 3917 
Q 783 3941 , 783 3959 
Q 783 4066 , 822 4120 
Q 862 4175 , 915 4183 
L 1059 2934 
L 1242 2934 
L 1095 4186 
Q 1141 4186 , 1209 4117 
Q 1288 4033 , 1306 3878 
L 1417 2934 
L 1600 2934 
" fill="#9370DB" stroke="black" stroke-width="10"/>
<path d="
M 2079 5521 
L 2221 5521 
L 2650 5550 
L 2471 5550 
L 2329 5540 
L 1971 5540 
L 1829 5550 
L 1650 5550 
L 2079 5521 
M 2293 5536 
L 2150 5528 
L 2043 5536 
L 2293 5536 
" fill="#339541" stroke="black" stroke-width="10"/>
<path d="
M 1650 5435 
L 1835 5435 
L 1835 5489 
Q 1835 5498 , 1928 5504 
Q 2020 5508 , 2150 5508 
Q 2280 5508 , 2354 5504 
Q 2446 5498 , 2446 5489 
L 2446 5435 
L 2650 5435 
L 2650 5488 
Q 2650 5503 , 2483 5512 
Q 2354 5521 , 2150 5521 
Q 1928 5521 , 1798 5513 
Q 1650 5504 , 1650 5488 
L 1650 5435 
" fill="#D21010" stroke="black" stroke-width="10"/>
<path d="
M 2650 4817 
L 2650 4955 
Q 2531 4896 , 2460 4876 
Q 2364 4847 , 2245 4847 
Q 2102 4847 , 1983 4919 
Q 1912 4955 , 1888 4998 
Q 1864 5041 , 1864 5091 
Q 1864 5191 , 1983 5263 
Q 2102 5333 , 2245 5333 
Q 2317 5333 , 2400 5316 
Q 2483 5300 , 2650 5239 
L 2650 5369 
Q 2412 5435 , 2245 5435 
Q 2007 5435 , 1840 5342 
Q 1650 5243 , 1650 5094 
Q 1650 4949 , 1817 4850 
Q 2007 4748 , 2245 4748 
Q 2364 4748 , 2447 4764 
Q 2531 4780 , 2650 4817 
" fill="#545FFF" stroke="black" stroke-width="10"/>
<path d="
M 2606 3997 
L 2606 4165 
Q 2472 4085 , 2406 4062 
Q 2317 4037 , 2250 4037 
Q 2072 4037 , 1961 4129 
Q 1850 4215 , 1850 4336 
Q 1850 4459 , 1961 4548 
Q 2072 4627 , 2206 4627 
Q 2317 4627 , 2383 4584 
Q 2450 4535 , 2450 4457 
L 2450 4422 
L 2072 4422 
L 2072 4308 
L 2650 4308 
L 2650 4734 
L 2472 4734 
L 2472 4675 
Q 2472 4679 , 2406 4705 
Q 2294 4747 , 2183 4747 
Q 1961 4747 , 1806 4628 
Q 1650 4509 , 1650 4338 
Q 1650 4161 , 1806 4040 
Q 1983 3917 , 2228 3917 
Q 2339 3917 , 2450 3943 
Q 2517 3956 , 2606 3997 
" fill="#F5C000" stroke="black" stroke-width="10"/>
<path d="
M 3700 5534 
L 3700 5537 
Q 3581 5536 , 3510 5535 
Q 3414 5535 , 3295 5535 
Q 3152 5535 , 3033 5536 
Q 2962 5537 , 2938 5538 
Q 2914 5539 , 2914 5541 
Q 2914 5543 , 3033 5545 
Q 3152 5547 , 3295 5547 
Q 3367 5547 , 3450 5546 
Q 3533 5546 , 3700 5544 
L 3700 5548 
Q 3462 5549 , 3295 5549 
Q 3057 5549 , 2890 5547 
Q 2700 5545 , 2700 5541 
Q 2700 5537 , 2867 5535 
Q 3057 5532 , 3295 5532 
Q 3414 5532 , 3497 5532 
Q 3581 5533 , 3700 5534 
" fill="#545FFF" stroke="black" stroke-width="10"/>
<path d="
M 3129 5322 
L 3271 5322 
L 3700 5532 
L 3521 5532 
L 3379 5464 
L 3021 5464 
L 2879 5532 
L 2700 5532 
L 3129 5322 
M 3343 5434 
L 3200 5371 
L 3093 5434 
L 3343 5434 
" fill="#339541" stroke="black" stroke-width="10"/>
<path d="
M 3656 5022 
L 3656 5089 
Q 3522 5057 , 3456 5048 
Q 3367 5038 , 3300 5038 
Q 3122 5038 , 3011 5075 
Q 2900 5109 , 2900 5158 
Q 2900 5207 , 3011 5242 
Q 3122 5274 , 3256 5274 
Q 3367 5274 , 3433 5257 
Q 3500 5237 , 3500 5206 
L 3500 5192 
L 3122 5192 
L 3122 5146 
L 3700 5146 
L 3700 5317 
L 3522 5317 
L 3522 5293 
Q 3522 5295 , 3456 5305 
Q 3344 5322 , 3233 5322 
Q 3011 5322 , 2856 5274 
Q 2700 5227 , 2700 5158 
Q 2700 5088 , 2856 5039 
Q 3033 4990 , 3278 4990 
Q 3389 4990 , 3500 5001 
Q 3567 5006 , 3656 5022 
" fill="#F5C000" stroke="black" stroke-width="10"/>
<path d="
M 3591 4308 
L 3489 4638 
Q 3464 4719 , 3377 4771 
Q 3269 4834 , 3109 4834 
L 3061 4989 
L 2898 4989 
L 2949 4831 
Q 2850 4824 , 2775 4777 
Q 2700 4731 , 2700 4653 
L 2706 4617 
L 2802 4308 
L 2965 4308 
L 2869 4618 
Q 2866 4631 , 2864 4639 
Q 2863 4647 , 2863 4653 
Q 2863 4689 , 2898 4707 
Q 2933 4726 , 2981 4728 
L 3109 4308 
L 3272 4308 
L 3141 4729 
Q 3182 4729 , 3243 4706 
Q 3313 4678 , 3329 4626 
L 3428 4308 
L 3591 4308 
" fill="#9370DB" stroke="black" stroke-width="10"/>
<path d="
M 3646 4989 
Q 3623 4989 , 3607 4921 
Q 3591 4849 , 3591 4734 
Q 3591 4626 , 3607 4554 
Q 3623 4479 , 3646 4479 
Q 3668 4479 , 3684 4554 
Q 3700 4626 , 3700 4733 
Q 3700 4846 , 3684 4920 
Q 3668 4989 , 3646 4989 
M 3646 4892 
Q 3655 4892 , 3665 4849 
Q 3674 4804 , 3674 4733 
Q 3674 4661 , 3665 4615 
Q 3655 4575 , 3646 4575 
Q 3633 4575 , 3627 4616 
Q 3617 4664 , 3617 4734 
Q 3617 4805 , 3627 4852 
Q 3633 4892 , 3646 4892 
" fill="#9370DB" stroke="black" stroke-width="10"/>
<path d="
M 4750 5501 
L 4750 5512 
Q 4631 5507 , 4560 5506 
Q 4464 5504 , 4345 5504 
Q 4202 5504 , 4083 5509 
Q 4012 5512 , 3988 5515 
Q 3964 5519 , 3964 5522 
Q 3964 5530 , 4083 5536 
Q 4202 5541 , 4345 5541 
Q 4417 5541 , 4500 5540 
Q 4583 5539 , 4750 5534 
L 4750 5544 
Q 4512 5549 , 4345 5549 
Q 4107 5549 , 3940 5542 
Q 3750 5534 , 3750 5523 
Q 3750 5512 , 3917 5504 
Q 4107 5496 , 4345 5496 
Q 4464 5496 , 4547 5497 
Q 4631 5498 , 4750 5501 
" fill="#545FFF" stroke="black" stroke-width="10"/>
<path d="
M 3750 5389 
L 3935 5389 
L 3935 5456 
Q 3935 5467 , 4028 5474 
Q 4120 5480 , 4250 5480 
Q 4380 5480 , 4454 5474 
Q 4546 5467 , 4546 5456 
L 4546 5389 
L 4750 5389 
L 4750 5454 
Q 4750 5473 , 4583 5485 
Q 4454 5495 , 4250 5495 
Q 4028 5495 , 3898 5485 
Q 3750 5474 , 3750 5455 
L 3750 5389 
" fill="#D21010" stroke="black" stroke-width="10"/>
<path d="
M 4179 5123 
L 4321 5123 
L 4750 5388 
L 4571 5388 
L 4429 5303 
L 4071 5303 
L 3929 5388 
L 3750 5388 
L 4179 5123 
M 4393 5265 
L 4250 5184 
L 4143 5265 
L 4393 5265 
" fill="#339541" stroke="black" stroke-width="10"/>
<path d="
M 4706 2680 
L 4706 3227 
Q 4572 2965 , 4506 2891 
Q 4417 2808 , 4350 2808 
Q 4172 2808 , 4061 3108 
Q 3950 3390 , 3950 3783 
Q 3950 4182 , 4061 4473 
Q 4172 4732 , 4306 4732 
Q 4417 4732 , 4483 4592 
Q 4550 4432 , 4550 4176 
L 4550 4064 
L 4172 4064 
L 4172 3690 
L 4750 3690 
L 4750 5081 
L 4572 5081 
L 4572 4886 
Q 4572 4902 , 4506 4985 
Q 4394 5122 , 4283 5122 
Q 4061 5122 , 3906 4735 
Q 3750 4345 , 3750 3789 
Q 3750 3214 , 3906 2818 
Q 4083 2418 , 4328 2418 
Q 4439 2418 , 4550 2504 
Q 4617 2546 , 4706 2680 
" fill="#F5C000" stroke="black" stroke-width="10"/>
<path d="
M 5800 5527 
L 5800 5532 
Q 5681 5530 , 5610 5530 
Q 5514 5529 , 5395 5529 
Q 5252 5529 , 5133 5531 
Q 5062 5532 , 5038 5534 
Q 5014 5536 , 5014 5537 
Q 5014 5541 , 5133 5544 
Q 5252 5546 , 5395 5546 
Q 5467 5546 , 5550 5545 
Q 5633 5545 , 5800 5543 
L 5800 5547 
Q 5562 5550 , 5395 5550 
Q 5157 5550 , 4990 5546 
Q 4800 5543 , 4800 5537 
Q 4800 5532 , 4967 5529 
Q 5157 5525 , 5395 5525 
Q 5514 5525 , 5597 5525 
Q 5681 5526 , 5800 5527 
" fill="#545FFF" stroke="black" stroke-width="10"/>
<path d="
M 4800 5450 
L 4985 5450 
L 4985 5497 
Q 4985 5505 , 5078 5509 
Q 5170 5513 , 5300 5513 
Q 5430 5513 , 5504 5509 
Q 5596 5505 , 5596 5497 
L 5596 5450 
L 5800 5450 
L 5800 5496 
Q 5800 5509 , 5633 5517 
Q 5504 5524 , 5300 5524 
Q 5078 5524 , 4948 5517 
Q 4800 5510 , 4800 5496 
L 4800 5450 
" fill="#D21010" stroke="black" stroke-width="10"/>
<path d="
M 5229 4881 
L 5371 4881 
L 5800 5450 
L 5621 5450 
L 5479 5267 
L 5121 5267 
L 4979 5450 
L 4800 5450 
L 5229 4881 
M 5443 5186 
L 5300 5013 
L 5193 5186 
L 5443 5186 
" fill="#339541" stroke="black" stroke-width="10"/>
<path d="
M 5756 3406 
L 5756 3736 
Q 5622 3578 , 5556 3534 
Q 5467 3483 , 5400 3483 
Q 5222 3483 , 5111 3665 
Q 5000 3835 , 5000 4072 
Q 5000 4313 , 5111 4489 
Q 5222 4645 , 5356 4645 
Q 5467 4645 , 5533 4560 
Q 5600 4464 , 5600 4309 
L 5600 4242 
L 5222 4242 
L 5222 4016 
L 5800 4016 
L 5800 4856 
L 5622 4856 
L 5622 4738 
Q 5622 4748 , 5556 4798 
Q 5444 4881 , 5333 4881 
Q 5111 4881 , 4956 4647 
Q 4800 4412 , 4800 4076 
Q 4800 3729 , 4956 3489 
Q 5133 3248 , 5378 3248 
Q 5489 3248 , 5600 3300 
Q 5667 3325 , 5756 3406 
" fill="#F5C000" stroke="black" stroke-width="10"/>
<path d="
M 6850 5479 
L 6850 5495 
Q 6731 5488 , 6660 5486 
Q 6564 5482 , 6445 5482 
Q 6302 5482 , 6183 5491 
Q 6112 5495 , 6088 5500 
Q 6064 5505 , 6064 5510 
Q 6064 5522 , 6183 5530 
Q 6302 5538 , 6445 5538 
Q 6517 5538 , 6600 5536 
Q 6683 5534 , 6850 5527 
L 6850 5542 
Q 6612 5550 , 6445 5550 
Q 6207 5550 , 6040 5539 
Q 5850 5528 , 5850 5511 
Q 5850 5494 , 6017 5483 
Q 6207 5471 , 6445 5471 
Q 6564 5471 , 6647 5473 
Q 6731 5475 , 6850 5479 
" fill="#545FFF" stroke="black" stroke-width="10"/>
<path d="
M 6806 5328 
L 6806 5360 
Q 6672 5345 , 6606 5341 
Q 6517 5336 , 6450 5336 
Q 6272 5336 , 6161 5353 
Q 6050 5370 , 6050 5392 
Q 6050 5416 , 6161 5433 
Q 6272 5448 , 6406 5448 
Q 6517 5448 , 6583 5440 
Q 6650 5430 , 6650 5415 
L 6650 5409 
L 6272 5409 
L 6272 5387 
L 6850 5387 
L 6850 5468 
L 6672 5468 
L 6672 5457 
Q 6672 5458 , 6606 5462 
Q 6494 5470 , 6383 5470 
Q 6161 5470 , 6006 5448 
Q 5850 5425 , 5850 5393 
Q 5850 5359 , 6006 5336 
Q 6183 5313 , 6428 5313 
Q 6539 5313 , 6650 5318 
Q 6717 5320 , 6806 5328 
" fill="#F5C000" stroke="black" stroke-width="10"/>
<path d="
M 5850 5076 
L 6035 5076 
L 6035 5225 
Q 6035 5250 , 6128 5264 
Q 6220 5277 , 6350 5277 
Q 6480 5277 , 6554 5265 
Q 6646 5250 , 6646 5225 
L 6646 5076 
L 6850 5076 
L 6850 5222 
Q 6850 5263 , 6683 5289 
Q 6554 5312 , 6350 5312 
Q 6128 5312 , 5998 5289 
Q 5850 5265 , 5850 5223 
L 5850 5076 
" fill="#D21010" stroke="black" stroke-width="10"/>
<path d="
M 6279 2872 
L 6421 2872 
L 6850 5075 
L 6671 5075 
L 6529 4367 
L 6171 4367 
L 6029 5075 
L 5850 5075 
L 6279 2872 
M 6493 4053 
L 6350 3382 
L 6243 4053 
L 6493 4053 
" fill="#339541" stroke="black" stroke-width="10"/>
<path d="M 550 550 L 550 5550 " stroke="black" stroke-width="15"/>
<path d="M 450 5550 L 550 5550 " stroke="black" stroke-width="40"/>
<text text-anchor="end" x="350" y="5550" font-size="500">0</text>
<path d="M 450 3050 L 550 3050 " stroke="black" stroke-width="40"/>
<text text-anchor="end" x="350" y="3050" font-size="500">1</text>
<path d="M 450 550 L 550 550 " stroke="black" stroke-width="40"/>
<text text-anchor="end" x="350" y="550" font-size="500">2</text>
<text text-anchor="middle" x="1100" y="6150" font-size="500">1</text>
<text text-anchor="middle" x="2150" y="6150" font-size="500">2</text>
<text text-anchor="middle" x="3200" y="6150" font-size="500">3</text>
<text text-anchor="middle" x="4250" y="6150" font-size="500">4</text>
<text text-anchor="middle" x="5300" y="6150" font-size="500">5</text>
<text text-anchor="middle" x="6350" y="6150" font-size="500">6</text>
<text text-anchor="middle" x="3675" y="500" font-size="500">sample1</text>
</svg>